<svg width="222" height="37" viewBox="0 0 222 37" fill="none" xmlns="http://www.w3.org/2000/svg">
<path d="M26.0909 12C25.7159 10.8523 25.2216 9.82386 24.608 8.91477C24.0057 7.99432 23.2841 7.21023 22.4432 6.5625C21.6136 5.91477 20.6705 5.42045 19.6136 5.07954C18.5568 4.73864 17.3977 4.56818 16.1364 4.56818C14.0682 4.56818 12.1875 5.10227 10.4943 6.17045C8.80114 7.23864 7.45455 8.8125 6.45455 10.892C5.45455 12.9716 4.95455 15.5227 4.95455 18.5455C4.95455 21.5682 5.46023 24.1193 6.47159 26.1989C7.48295 28.2784 8.85227 29.8523 10.5795 30.9205C12.3068 31.9886 14.25 32.5227 16.4091 32.5227C18.4091 32.5227 20.1705 32.0966 21.6932 31.2443C23.2273 30.3807 24.4205 29.1648 25.2727 27.5966C26.1364 26.017 26.5682 24.1591 26.5682 22.0227L27.8636 22.2955H17.3636V18.5455H30.6591V22.2955C30.6591 25.1705 30.0455 27.6705 28.8182 29.7955C27.6023 31.9205 25.9205 33.5682 23.7727 34.7386C21.6364 35.8977 19.1818 36.4773 16.4091 36.4773C13.3182 36.4773 10.6023 35.75 8.26136 34.2955C5.93182 32.8409 4.11364 30.7727 2.80682 28.0909C1.51136 25.4091 0.863636 22.2273 0.863636 18.5455C0.863636 15.7841 1.23295 13.3011 1.97159 11.0966C2.72159 8.88068 3.77841 6.99432 5.14205 5.4375C6.50568 3.88068 8.11932 2.6875 9.98295 1.85795C11.8466 1.02841 13.8977 0.613635 16.1364 0.613635C17.9773 0.613635 19.6932 0.892044 21.2841 1.44886C22.8864 1.99432 24.3125 2.77273 25.5625 3.78409C26.8239 4.78409 27.875 5.98295 28.7159 7.38068C29.5568 8.76705 30.1364 10.3068 30.4545 12H26.0909ZM37.3537 36V9.81818H41.2401V13.7727H41.5128C41.9901 12.4773 42.8537 11.4261 44.1037 10.6193C45.3537 9.8125 46.7628 9.40909 48.331 9.40909C48.6264 9.40909 48.9957 9.41477 49.4389 9.42614C49.8821 9.4375 50.2173 9.45455 50.4446 9.47727V13.5682C50.3082 13.5341 49.9957 13.483 49.5071 13.4148C49.0298 13.3352 48.5241 13.2955 47.9901 13.2955C46.7173 13.2955 45.581 13.5625 44.581 14.0966C43.5923 14.6193 42.8082 15.3466 42.2287 16.2784C41.6605 17.1989 41.3764 18.25 41.3764 19.4318V36H37.3537ZM55.2131 36V9.81818H59.2358V36H55.2131ZM57.2585 5.45455C56.4744 5.45455 55.7983 5.1875 55.2301 4.65341C54.6733 4.11932 54.3949 3.47727 54.3949 2.72727C54.3949 1.97727 54.6733 1.33523 55.2301 0.801135C55.7983 0.267045 56.4744 0 57.2585 0C58.0426 0 58.7131 0.267045 59.2699 0.801135C59.8381 1.33523 60.1222 1.97727 60.1222 2.72727C60.1222 3.47727 59.8381 4.11932 59.2699 4.65341C58.7131 5.1875 58.0426 5.45455 57.2585 5.45455ZM67.1491 36V1.09091H71.1719V13.9773H71.5128C71.8082 13.5227 72.2173 12.9432 72.7401 12.2386C73.2741 11.5227 74.0355 10.8864 75.0241 10.3295C76.0241 9.76136 77.3764 9.47727 79.081 9.47727C81.2855 9.47727 83.2287 10.0284 84.9105 11.1307C86.5923 12.233 87.9048 13.7955 88.848 15.8182C89.7912 17.8409 90.2628 20.2273 90.2628 22.9773C90.2628 25.75 89.7912 28.1534 88.848 30.1875C87.9048 32.2102 86.598 33.7784 84.9276 34.892C83.2571 35.9943 81.331 36.5455 79.1491 36.5455C77.4673 36.5455 76.1207 36.267 75.1094 35.7102C74.098 35.142 73.3196 34.5 72.7741 33.7841C72.2287 33.0568 71.8082 32.4545 71.5128 31.9773H71.0355V36H67.1491ZM71.1037 22.9091C71.1037 24.8864 71.3935 26.6307 71.973 28.142C72.5526 29.642 73.3991 30.8182 74.5128 31.6705C75.6264 32.5114 76.9901 32.9318 78.6037 32.9318C80.2855 32.9318 81.6889 32.4886 82.8139 31.6023C83.9503 30.7045 84.8026 29.5 85.3707 27.9886C85.9503 26.4659 86.2401 24.7727 86.2401 22.9091C86.2401 21.0682 85.956 19.4091 85.3878 17.9318C84.831 16.4432 83.9844 15.267 82.848 14.4034C81.723 13.5284 80.3082 13.0909 78.6037 13.0909C76.9673 13.0909 75.5923 13.5057 74.4787 14.3352C73.3651 15.1534 72.5241 16.3011 71.956 17.7784C71.3878 19.2443 71.1037 20.9545 71.1037 22.9091Z" fill="black"/>
<path d="M125.053 12H120.825C120.575 10.7841 120.138 9.71591 119.513 8.79545C118.899 7.875 118.149 7.10227 117.263 6.47727C116.388 5.84091 115.416 5.36364 114.348 5.04545C113.28 4.72727 112.166 4.56818 111.007 4.56818C108.893 4.56818 106.979 5.10227 105.263 6.17045C103.558 7.23864 102.2 8.8125 101.189 10.892C100.189 12.9716 99.6889 15.5227 99.6889 18.5455C99.6889 21.5682 100.189 24.1193 101.189 26.1989C102.2 28.2784 103.558 29.8523 105.263 30.9205C106.979 31.9886 108.893 32.5227 111.007 32.5227C112.166 32.5227 113.28 32.3636 114.348 32.0455C115.416 31.7273 116.388 31.2557 117.263 30.6307C118.149 29.9943 118.899 29.2159 119.513 28.2955C120.138 27.3636 120.575 26.2955 120.825 25.0909H125.053C124.734 26.875 124.155 28.4716 123.314 29.8807C122.473 31.2898 121.428 32.4886 120.178 33.4773C118.928 34.4545 117.524 35.1989 115.967 35.7102C114.422 36.2216 112.768 36.4773 111.007 36.4773C108.03 36.4773 105.382 35.75 103.064 34.2955C100.746 32.8409 98.9219 30.7727 97.5923 28.0909C96.2628 25.4091 95.598 22.2273 95.598 18.5455C95.598 14.8636 96.2628 11.6818 97.5923 9C98.9219 6.31818 100.746 4.25 103.064 2.79545C105.382 1.34091 108.03 0.613635 111.007 0.613635C112.768 0.613635 114.422 0.869317 115.967 1.38068C117.524 1.89205 118.928 2.64205 120.178 3.63068C121.428 4.60795 122.473 5.80114 123.314 7.21023C124.155 8.60795 124.734 10.2045 125.053 12ZM135.361 1.09091V36H131.338V1.09091H135.361ZM153.365 36.5455C151.001 36.5455 148.928 35.983 147.143 34.858C145.371 33.733 143.984 32.1591 142.984 30.1364C141.996 28.1136 141.501 25.75 141.501 23.0455C141.501 20.3182 141.996 17.9375 142.984 15.9034C143.984 13.8693 145.371 12.2898 147.143 11.1648C148.928 10.0398 151.001 9.47727 153.365 9.47727C155.729 9.47727 157.797 10.0398 159.57 11.1648C161.354 12.2898 162.74 13.8693 163.729 15.9034C164.729 17.9375 165.229 20.3182 165.229 23.0455C165.229 25.75 164.729 28.1136 163.729 30.1364C162.74 32.1591 161.354 33.733 159.57 34.858C157.797 35.983 155.729 36.5455 153.365 36.5455ZM153.365 32.9318C155.161 32.9318 156.638 32.4716 157.797 31.5511C158.956 30.6307 159.814 29.4205 160.371 27.9205C160.928 26.4205 161.206 24.7955 161.206 23.0455C161.206 21.2955 160.928 19.6648 160.371 18.1534C159.814 16.642 158.956 15.4205 157.797 14.4886C156.638 13.5568 155.161 13.0909 153.365 13.0909C151.57 13.0909 150.092 13.5568 148.933 14.4886C147.774 15.4205 146.916 16.642 146.359 18.1534C145.803 19.6648 145.524 21.2955 145.524 23.0455C145.524 24.7955 145.803 26.4205 146.359 27.9205C146.916 29.4205 147.774 30.6307 148.933 31.5511C150.092 32.4716 151.57 32.9318 153.365 32.9318ZM187.869 25.2955V9.81818H191.892V36H187.869V31.5682H187.597C186.983 32.8977 186.028 34.0284 184.733 34.9602C183.438 35.8807 181.801 36.3409 179.824 36.3409C178.188 36.3409 176.733 35.983 175.46 35.267C174.188 34.5398 173.188 33.4489 172.46 31.9943C171.733 30.5284 171.369 28.6818 171.369 26.4545V9.81818H175.392V26.1818C175.392 28.0909 175.926 29.6136 176.994 30.75C178.074 31.8864 179.449 32.4545 181.119 32.4545C182.119 32.4545 183.136 32.1989 184.17 31.6875C185.216 31.1761 186.091 30.392 186.795 29.3352C187.511 28.2784 187.869 26.9318 187.869 25.2955ZM209.146 36.5455C206.964 36.5455 205.038 35.9943 203.368 34.892C201.697 33.7784 200.391 32.2102 199.447 30.1875C198.504 28.1534 198.033 25.75 198.033 22.9773C198.033 20.2273 198.504 17.8409 199.447 15.8182C200.391 13.7955 201.703 12.233 203.385 11.1307C205.067 10.0284 207.01 9.47727 209.214 9.47727C210.919 9.47727 212.266 9.76136 213.254 10.3295C214.254 10.8864 215.016 11.5227 215.538 12.2386C216.072 12.9432 216.487 13.5227 216.783 13.9773H217.124V1.09091H221.146V36H217.26V31.9773H216.783C216.487 32.4545 216.067 33.0568 215.521 33.7841C214.976 34.5 214.197 35.142 213.186 35.7102C212.175 36.267 210.828 36.5455 209.146 36.5455ZM209.692 32.9318C211.305 32.9318 212.669 32.5114 213.783 31.6705C214.896 30.8182 215.743 29.642 216.322 28.142C216.902 26.6307 217.192 24.8864 217.192 22.9091C217.192 20.9545 216.908 19.2443 216.339 17.7784C215.771 16.3011 214.93 15.1534 213.817 14.3352C212.703 13.5057 211.328 13.0909 209.692 13.0909C207.987 13.0909 206.567 13.5284 205.43 14.4034C204.305 15.267 203.459 16.4432 202.891 17.9318C202.334 19.4091 202.055 21.0682 202.055 22.9091C202.055 24.7727 202.339 26.4659 202.908 27.9886C203.487 29.5 204.339 30.7045 205.464 31.6023C206.601 32.4886 208.01 32.9318 209.692 32.9318Z" fill="#0478FF"/>
</svg>
